# xmcd
#
# Track frame offsets:
#	150
#	19436
#	34712
#	46406
#	66537
#	83973
#	100502
#	113813
#	132677
#	150089
#	163653
#	182647
#	197015
#	212991
#	230064
#	253235
#
# Disc length: 3382 seconds
#
# Revision: 0
# Processed by: cddbd v1.5.2PL0 Copyright (c) Steve Scherf et al.
# Submitted via: audiograbber 1.83.01
#
DISCID=e40d3410
DTITLE=All Star Karaoke - ASK04V4-2
DYEAR=2003
DGENRE=Karaoke Country
TTITLE0=Faith Hill and Tim McGraw - Lets Make Love
TTITLE1=Brad Paisley - Me Neither
TTITLE2=Martina McBride - My Baby Loves Me
TTITLE3=Brooks and Dunn - Only In AMerica
TTITLE4=Dixie Chicks - Ready To Run
TTITLE5=Sara Evans - Saints And Angles
TTITLE6=Rascal Flatts - This Everyday Love
TTITLE7=Brad Paisley - Two People Fell In Love
TTITLE8=Brad Paisley - We Danced
TTITLE9=George Strait - What Do You Say To That
TTITLE10=Clkint Black - When I Said I Do
TTITLE11=Alan Jackson - When Somebody Loves You
TTITLE12=Rascal Flatts - While You Loved Me
TTITLE13=Dixie Chicks - Wide Open Spaces
TTITLE14=Alan Jackson - www.Memory
TTITLE15=data - Data Track
EXTD=This appears to be version 4 of ASK-04 noted by the number of stars printe
EXTD=d next the disc id tag on the jewel case. This is disc 2 from that package
EXTD=
EXTT0=
EXTT1=
EXTT2=
EXTT3=
EXTT4=
EXTT5=
EXTT6=
EXTT7=
EXTT8=
EXTT9=
EXTT10=
EXTT11=
EXTT12=
EXTT13=
EXTT14=
EXTT15=
PLAYORDER=
